<svg width="225" height="156" viewBox="0 0 225 156" fill="none" xmlns="http://www.w3.org/2000/svg">
    <path opacity="0.5" d="M56.4271 38H57.2791V34.964L58.9471 33.14L62.0311 38H63.0151L59.5231 32.48L62.5711 29.12H61.5271L57.2791 33.908V29.12H56.4271V38ZM66.3115 38.132C67.5115 38.132 68.2915 37.58 68.8435 36.692L68.3275 36.284C67.8475 37.028 67.3075 37.436 66.3595 37.436C65.2675 37.436 64.3795 36.56 64.3675 35H68.8915V34.844C68.8915 32.684 67.7875 31.556 66.3115 31.556C64.9795 31.556 63.5395 32.588 63.5395 34.832C63.5395 36.992 64.8355 38.132 66.3115 38.132ZM64.3795 34.34C64.5355 32.912 65.3875 32.252 66.2995 32.252C67.4275 32.252 68.0035 33.14 68.0875 34.34H64.3795ZM72.8622 38.132C74.0622 38.132 74.8422 37.58 75.3942 36.692L74.8782 36.284C74.3982 37.028 73.8582 37.436 72.9102 37.436C71.8182 37.436 70.9302 36.56 70.9182 35H75.4422V34.844C75.4422 32.684 74.3382 31.556 72.8622 31.556C71.5302 31.556 70.0902 32.588 70.0902 34.832C70.0902 36.992 71.3862 38.132 72.8622 38.132ZM70.9302 34.34C71.0862 32.912 71.9382 32.252 72.8502 32.252C73.9782 32.252 74.5542 33.14 74.6382 34.34H70.9302ZM77.001 40.4H77.829V37.136C78.393 37.712 79.053 38.108 79.869 38.108C81.381 38.108 82.545 37.04 82.545 34.832C82.545 32.624 81.393 31.556 79.941 31.556C78.993 31.556 78.333 32.036 77.829 32.576V31.676H77.001V40.4ZM79.797 37.412C79.065 37.412 78.453 37.04 77.829 36.38V33.308C78.429 32.672 79.017 32.264 79.797 32.264C80.853 32.264 81.717 33.092 81.717 34.844C81.717 36.632 80.913 37.412 79.797 37.412ZM87.0013 38H87.7933V30.536H87.8173C88.0093 31.172 88.1533 31.544 88.3693 32.12L90.6733 38H91.4533L93.7573 32.12C93.9733 31.544 94.1893 30.956 94.3093 30.56H94.3333V38H95.1853V29.12H94.0573L91.1053 36.896H91.0813L88.1053 29.12H87.0013V38ZM99.6865 38.132C100.886 38.132 101.666 37.58 102.218 36.692L101.702 36.284C101.222 37.028 100.682 37.436 99.7345 37.436C98.6425 37.436 97.7545 36.56 97.7425 35H102.266V34.844C102.266 32.684 101.162 31.556 99.6865 31.556C98.3545 31.556 96.9145 32.588 96.9145 34.832C96.9145 36.992 98.2105 38.132 99.6865 38.132ZM97.7545 34.34C97.9105 32.912 98.7625 32.252 99.6745 32.252C100.802 32.252 101.378 33.14 101.462 34.34H97.7545ZM109.532 38.168C111.308 38.168 112.616 37.22 112.616 35.744C112.616 34.304 111.704 33.692 109.856 33.104C107.984 32.504 107.396 32.168 107.396 31.172C107.396 30.356 108.116 29.72 109.304 29.72C110.42 29.72 111.2 30.176 111.644 31.328L112.364 30.992C111.944 29.804 110.984 28.952 109.316 28.952C107.696 28.952 106.556 29.96 106.556 31.232C106.556 32.696 107.528 33.212 109.436 33.812C111.32 34.412 111.764 34.88 111.764 35.804C111.764 36.8 110.9 37.412 109.568 37.412C108.32 37.412 107.42 36.776 107.024 35.54L106.268 35.816C106.688 37.256 107.864 38.168 109.532 38.168ZM114.373 30.212H115.249V29.324H114.373V30.212ZM114.397 38H115.225V31.676H114.397V38ZM119.512 40.424C121.24 40.424 122.44 39.788 122.44 38.636C122.44 37.652 121.672 37.148 120.208 37.028L118.828 36.92C118.12 36.848 117.892 36.704 117.892 36.44C117.892 36.2 118.096 36.02 118.396 35.9C118.708 36.02 119.044 36.08 119.416 36.08C120.82 36.08 121.9 35.216 121.9 33.836C121.9 33.344 121.768 32.948 121.528 32.624C121.888 32.468 122.308 32.408 122.68 32.408V31.628C122.176 31.688 121.588 31.928 121.216 32.204C120.772 31.796 120.148 31.556 119.416 31.556C117.988 31.556 116.92 32.492 116.92 33.836C116.92 34.616 117.28 35.264 117.88 35.648C117.424 35.888 117.112 36.212 117.112 36.596C117.112 36.98 117.292 37.244 117.676 37.4C116.944 37.688 116.512 38.192 116.512 38.84C116.512 39.812 117.46 40.424 119.512 40.424ZM119.428 35.444C118.396 35.444 117.724 34.82 117.724 33.848C117.724 32.864 118.372 32.216 119.416 32.216C120.496 32.216 121.12 32.84 121.12 33.848C121.12 34.82 120.46 35.444 119.428 35.444ZM119.596 39.776C118 39.776 117.304 39.392 117.304 38.732C117.304 38.252 117.652 37.808 118.36 37.58C118.468 37.592 118.576 37.604 118.684 37.616L119.944 37.712C121.192 37.808 121.672 38.108 121.672 38.708C121.672 39.344 120.892 39.776 119.596 39.776ZM123.981 38H124.809V33.368C125.517 32.684 126.201 32.264 127.017 32.264C127.881 32.264 128.277 32.696 128.277 33.584V38H129.105V33.428C129.105 32.252 128.469 31.556 127.221 31.556C126.225 31.556 125.421 32.072 124.809 32.672V31.676H123.981V38ZM133.366 38.132C134.566 38.132 135.346 37.58 135.898 36.692L135.382 36.284C134.902 37.028 134.362 37.436 133.414 37.436C132.322 37.436 131.434 36.56 131.422 35H135.946V34.844C135.946 32.684 134.842 31.556 133.366 31.556C132.034 31.556 130.594 32.588 130.594 34.832C130.594 36.992 131.89 38.132 133.366 38.132ZM131.434 34.34C131.59 32.912 132.442 32.252 133.354 32.252C134.482 32.252 135.058 33.14 135.142 34.34H131.434ZM139.761 38.108C140.709 38.108 141.357 37.628 141.873 37.076C141.873 37.412 141.945 37.784 142.017 38H142.893C142.749 37.676 142.701 37.208 142.701 36.44V29.12H141.873V32.54C141.381 31.988 140.649 31.556 139.833 31.556C138.321 31.556 137.157 32.636 137.157 34.844C137.157 37.052 138.309 38.108 139.761 38.108ZM139.905 37.4C138.849 37.4 137.985 36.596 137.985 34.856C137.985 33.068 138.789 32.252 139.905 32.252C140.637 32.252 141.249 32.624 141.873 33.296V36.368C141.273 37.004 140.685 37.4 139.905 37.4ZM147.625 38H148.477V29.12H147.625V38ZM150.7 38H151.528V33.368C152.236 32.684 152.92 32.264 153.736 32.264C154.6 32.264 154.996 32.696 154.996 33.584V38H155.824V33.428C155.824 32.252 155.188 31.556 153.94 31.556C152.944 31.556 152.14 32.072 151.528 32.672V31.676H150.7V38Z" fill="black"/>
    <g filter="url(#filter0_d_182_1590)">
        <rect x="25" y="24" width="22" height="22" rx="11" fill="url(#paint0_linear_182_1590)"/>
        <rect x="25.5" y="24.5" width="21" height="21" rx="10.5" stroke="#F4F4F4"/>
    </g>
    <path d="M40 32L34.5 37.5L32 35" stroke="white" stroke-width="2" stroke-linecap="round" stroke-linejoin="round"/>
    <path opacity="0.5" d="M56.3373 72H61.8933V71.22H57.1893V67.692H60.5133V66.924H57.1893V63.912H61.6413V63.12H56.3373V72ZM63.2823 72H64.1103V67.368C64.8183 66.684 65.4663 66.264 66.2223 66.264C67.1223 66.264 67.4223 66.696 67.4223 67.584V72H68.2503V67.368C68.9583 66.684 69.5943 66.264 70.3623 66.264C71.2503 66.264 71.5503 66.696 71.5503 67.584V72H72.3783V67.428C72.3783 66.288 71.8503 65.556 70.5543 65.556C69.6183 65.556 68.8263 66.072 68.1663 66.696C67.9743 66.024 67.4943 65.556 66.4263 65.556C65.4783 65.556 64.7463 66.048 64.1103 66.672V65.676H63.2823V72ZM75.6433 72.108C76.5913 72.108 77.4073 71.76 78.1393 71.1C78.1393 71.46 78.1993 71.736 78.2833 72H79.1353C79.0033 71.676 78.9553 71.208 78.9553 70.44V67.572C78.9553 66.312 78.3433 65.556 76.9273 65.556C75.6793 65.556 74.8033 66.036 74.0473 66.732L74.4913 67.248C75.1513 66.672 75.8593 66.252 76.8553 66.252C77.6833 66.252 78.1393 66.672 78.1393 67.548V67.872C74.9233 68.364 73.8553 69.276 73.8553 70.524C73.8553 71.508 74.5153 72.108 75.6433 72.108ZM75.8233 71.424C75.1153 71.424 74.6713 71.076 74.6713 70.416C74.6713 69.588 75.4273 68.916 78.1393 68.46V70.428C77.4913 71.052 76.7113 71.424 75.8233 71.424ZM80.8498 64.212H81.7258V63.324H80.8498V64.212ZM80.8738 72H81.7018V65.676H80.8738V72ZM83.7566 72H84.5846V63.12H83.7566V72ZM89.4545 72H90.2465V64.536H90.2705C90.4625 65.172 90.6065 65.544 90.8225 66.12L93.1265 72H93.9065L96.2105 66.12C96.4265 65.544 96.6425 64.956 96.7625 64.56H96.7865V72H97.6385V63.12H96.5105L93.5585 70.896H93.5345L90.5585 63.12H89.4545V72ZM102.14 72.132C103.34 72.132 104.12 71.58 104.672 70.692L104.156 70.284C103.676 71.028 103.136 71.436 102.188 71.436C101.096 71.436 100.208 70.56 100.196 69H104.72V68.844C104.72 66.684 103.616 65.556 102.14 65.556C100.808 65.556 99.3676 66.588 99.3676 68.832C99.3676 70.992 100.664 72.132 102.14 72.132ZM100.208 68.34C100.364 66.912 101.216 66.252 102.128 66.252C103.256 66.252 103.832 67.14 103.916 68.34H100.208ZM108.094 72H108.922L109.87 69.264H113.47L114.418 72H115.306L112.162 63.084H111.238L108.094 72ZM110.134 68.508L111.658 64.092H111.682L113.206 68.508H110.134ZM119.564 72.108C121.076 72.108 122.24 71.04 122.24 68.832C122.24 66.624 121.088 65.556 119.636 65.556C118.688 65.556 118.028 66.036 117.524 66.6V63.12H116.696V72H117.524V71.136C118.088 71.712 118.748 72.108 119.564 72.108ZM119.492 71.412C118.76 71.412 118.148 71.04 117.524 70.38V67.308C118.124 66.672 118.712 66.264 119.492 66.264C120.548 66.264 121.412 67.092 121.412 68.844C121.412 70.632 120.608 71.412 119.492 71.412ZM126.318 72.132C127.866 72.132 129.174 70.944 129.174 68.844C129.174 66.732 127.866 65.556 126.318 65.556C124.758 65.556 123.45 66.732 123.45 68.844C123.45 70.944 124.77 72.132 126.318 72.132ZM126.318 71.424C124.962 71.424 124.278 70.236 124.278 68.832C124.278 67.344 125.034 66.264 126.318 66.264C127.65 66.264 128.346 67.452 128.346 68.832C128.346 70.356 127.59 71.424 126.318 71.424ZM132.559 72.132C133.543 72.132 134.347 71.604 134.959 71.004V72H135.799V65.676H134.959V70.32C134.251 70.992 133.567 71.424 132.763 71.424C131.887 71.424 131.503 70.992 131.503 70.104V65.676H130.675V70.248C130.675 71.424 131.299 72.132 132.559 72.132ZM139.808 72.084C140.096 72.084 140.432 72.048 140.624 72.012V71.304C140.444 71.364 140.204 71.388 139.964 71.388C139.184 71.388 138.968 71.028 138.968 70.356V66.384H140.612V65.676H138.968V63.408H138.14V65.676H137.036V66.384H138.14V70.524C138.14 71.616 138.596 72.084 139.808 72.084ZM147.798 72.168C149.574 72.168 150.882 71.22 150.882 69.744C150.882 68.304 149.97 67.692 148.122 67.104C146.25 66.504 145.662 66.168 145.662 65.172C145.662 64.356 146.382 63.72 147.57 63.72C148.686 63.72 149.466 64.176 149.91 65.328L150.63 64.992C150.21 63.804 149.25 62.952 147.582 62.952C145.962 62.952 144.822 63.96 144.822 65.232C144.822 66.696 145.794 67.212 147.702 67.812C149.586 68.412 150.03 68.88 150.03 69.804C150.03 70.8 149.166 71.412 147.834 71.412C146.586 71.412 145.686 70.776 145.29 69.54L144.534 69.816C144.954 71.256 146.13 72.168 147.798 72.168ZM152.591 74.4H153.419V71.136C153.983 71.712 154.643 72.108 155.459 72.108C156.971 72.108 158.135 71.04 158.135 68.832C158.135 66.624 156.983 65.556 155.531 65.556C154.583 65.556 153.923 66.036 153.419 66.576V65.676H152.591V74.4ZM155.387 71.412C154.655 71.412 154.043 71.04 153.419 70.38V67.308C154.019 66.672 154.607 66.264 155.387 66.264C156.443 66.264 157.307 67.092 157.307 68.844C157.307 70.632 156.503 71.412 155.387 71.412ZM162.116 72.132C163.316 72.132 164.096 71.58 164.648 70.692L164.132 70.284C163.652 71.028 163.112 71.436 162.164 71.436C161.072 71.436 160.184 70.56 160.172 69H164.696V68.844C164.696 66.684 163.592 65.556 162.116 65.556C160.784 65.556 159.344 66.588 159.344 68.832C159.344 70.992 160.64 72.132 162.116 72.132ZM160.184 68.34C160.34 66.912 161.192 66.252 162.104 66.252C163.232 66.252 163.808 67.14 163.892 68.34H160.184ZM168.631 72.132C169.915 72.132 170.647 71.436 171.151 70.368L170.479 70.08C170.035 71.016 169.543 71.424 168.667 71.424C167.563 71.424 166.723 70.488 166.723 68.832C166.723 66.936 167.755 66.264 168.691 66.264C169.579 66.264 170.083 66.744 170.431 67.596L171.139 67.284C170.743 66.36 170.071 65.556 168.715 65.556C167.299 65.556 165.895 66.576 165.895 68.844C165.895 70.944 167.179 72.132 168.631 72.132ZM172.678 64.212H173.554V63.324H172.678V64.212ZM172.702 72H173.53V65.676H172.702V72ZM176.917 72.108C177.865 72.108 178.681 71.76 179.413 71.1C179.413 71.46 179.473 71.736 179.557 72H180.409C180.277 71.676 180.229 71.208 180.229 70.44V67.572C180.229 66.312 179.617 65.556 178.201 65.556C176.953 65.556 176.077 66.036 175.321 66.732L175.765 67.248C176.425 66.672 177.133 66.252 178.129 66.252C178.957 66.252 179.413 66.672 179.413 67.548V67.872C176.197 68.364 175.129 69.276 175.129 70.524C175.129 71.508 175.789 72.108 176.917 72.108ZM177.097 71.424C176.389 71.424 175.945 71.076 175.945 70.416C175.945 69.588 176.701 68.916 179.413 68.46V70.428C178.765 71.052 177.985 71.424 177.097 71.424ZM182.147 72H182.975V63.12H182.147V72ZM187.845 72H188.697V68.064H190.713C192.585 68.064 193.905 67.332 193.905 65.544C193.905 63.912 192.729 63.12 190.797 63.12H187.845V72ZM188.697 67.308V63.9H190.761C192.249 63.9 193.053 64.368 193.053 65.568C193.053 66.852 192.237 67.308 190.773 67.308H188.697ZM195.142 72H195.97V67.884C196.462 66.888 197.278 66.312 198.31 66.312C198.334 66.312 198.562 66.324 198.562 66.324L198.646 65.556H198.502C197.254 65.556 196.486 66.144 195.994 66.924H195.97V65.676H195.142V72ZM199.924 64.212H200.8V63.324H199.924V64.212ZM199.948 72H200.776V65.676H199.948V72ZM205.135 72.132C206.419 72.132 207.151 71.436 207.655 70.368L206.983 70.08C206.539 71.016 206.047 71.424 205.171 71.424C204.067 71.424 203.227 70.488 203.227 68.832C203.227 66.936 204.259 66.264 205.195 66.264C206.083 66.264 206.587 66.744 206.935 67.596L207.643 67.284C207.247 66.36 206.575 65.556 205.219 65.556C203.803 65.556 202.399 66.576 202.399 68.844C202.399 70.944 203.683 72.132 205.135 72.132ZM209.182 64.212H210.058V63.324H209.182V64.212ZM209.206 72H210.034V65.676H209.206V72ZM212.017 72H212.845V67.368C213.553 66.684 214.237 66.264 215.053 66.264C215.917 66.264 216.313 66.696 216.313 67.584V72H217.141V67.428C217.141 66.252 216.505 65.556 215.257 65.556C214.261 65.556 213.457 66.072 212.845 66.672V65.676H212.017V72ZM221.293 74.424C223.021 74.424 224.221 73.788 224.221 72.636C224.221 71.652 223.453 71.148 221.989 71.028L220.609 70.92C219.901 70.848 219.673 70.704 219.673 70.44C219.673 70.2 219.877 70.02 220.177 69.9C220.489 70.02 220.825 70.08 221.197 70.08C222.601 70.08 223.681 69.216 223.681 67.836C223.681 67.344 223.549 66.948 223.309 66.624C223.669 66.468 224.089 66.408 224.461 66.408V65.628C223.957 65.688 223.369 65.928 222.997 66.204C222.553 65.796 221.929 65.556 221.197 65.556C219.769 65.556 218.701 66.492 218.701 67.836C218.701 68.616 219.061 69.264 219.661 69.648C219.205 69.888 218.893 70.212 218.893 70.596C218.893 70.98 219.073 71.244 219.457 71.4C218.725 71.688 218.293 72.192 218.293 72.84C218.293 73.812 219.241 74.424 221.293 74.424ZM221.209 69.444C220.177 69.444 219.505 68.82 219.505 67.848C219.505 66.864 220.153 66.216 221.197 66.216C222.277 66.216 222.901 66.84 222.901 67.848C222.901 68.82 222.241 69.444 221.209 69.444ZM221.377 73.776C219.781 73.776 219.085 73.392 219.085 72.732C219.085 72.252 219.433 71.808 220.141 71.58C220.249 71.592 220.357 71.604 220.465 71.616L221.725 71.712C222.973 71.808 223.453 72.108 223.453 72.708C223.453 73.344 222.673 73.776 221.377 73.776Z" fill="black"/>
    <g filter="url(#filter1_d_182_1590)">
        <rect x="25" y="58" width="22" height="22" rx="11" fill="url(#paint1_linear_182_1590)"/>
        <rect x="25.5" y="58.5" width="21" height="21" rx="10.5" stroke="#F4F4F4"/>
    </g>
    <path d="M40 66L34.5 71.5L32 69" stroke="white" stroke-width="2" stroke-linecap="round" stroke-linejoin="round"/>
    <defs>
        <filter id="filter0_d_182_1590" x="-13" y="0" width="122" height="122" filterUnits="userSpaceOnUse" color-interpolation-filters="sRGB">
            <feFlood flood-opacity="0" result="BackgroundImageFix"/>
            <feColorMatrix in="SourceAlpha" type="matrix" values="0 0 0 0 0 0 0 0 0 0 0 0 0 0 0 0 0 0 127 0" result="hardAlpha"/>
            <feOffset dx="12" dy="26"/>
            <feGaussianBlur stdDeviation="25"/>
            <feColorMatrix type="matrix" values="0 0 0 0 0.352941 0 0 0 0 0.423529 0 0 0 0 0.917647 0 0 0 0.07 0"/>
            <feBlend mode="normal" in2="BackgroundImageFix" result="effect1_dropShadow_182_1590"/>
            <feBlend mode="normal" in="SourceGraphic" in2="effect1_dropShadow_182_1590" result="shape"/>
        </filter>
        <filter id="filter1_d_182_1590" x="-13" y="34" width="122" height="122" filterUnits="userSpaceOnUse" color-interpolation-filters="sRGB">
            <feFlood flood-opacity="0" result="BackgroundImageFix"/>
            <feColorMatrix in="SourceAlpha" type="matrix" values="0 0 0 0 0 0 0 0 0 0 0 0 0 0 0 0 0 0 127 0" result="hardAlpha"/>
            <feOffset dx="12" dy="26"/>
            <feGaussianBlur stdDeviation="25"/>
            <feColorMatrix type="matrix" values="0 0 0 0 0.352941 0 0 0 0 0.423529 0 0 0 0 0.917647 0 0 0 0.07 0"/>
            <feBlend mode="normal" in2="BackgroundImageFix" result="effect1_dropShadow_182_1590"/>
            <feBlend mode="normal" in="SourceGraphic" in2="effect1_dropShadow_182_1590" result="shape"/>
        </filter>
        <linearGradient id="paint0_linear_182_1590" x1="25" y1="22.6491" x2="50.3969" y2="26.584" gradientUnits="userSpaceOnUse">
            <stop stop-color="#53E88B"/>
            <stop offset="1" stop-color="#15BE77"/>
        </linearGradient>
        <linearGradient id="paint1_linear_182_1590" x1="25" y1="56.6491" x2="50.3969" y2="60.584" gradientUnits="userSpaceOnUse">
            <stop stop-color="#53E88B"/>
            <stop offset="1" stop-color="#15BE77"/>
        </linearGradient>
    </defs>
</svg>
